<?xml version="1.0" encoding="UTF-8"?>
<svg xmlns="http://www.w3.org/2000/svg" xmlns:xlink="http://www.w3.org/1999/xlink" width="60pt" height="60pt" viewBox="0 0 60 60" version="1.1">
<g id="surface1">
<path style=" stroke:none;fill-rule:nonzero;fill:rgb(100%,100%,100%);fill-opacity:1;" d="M 59.628906 56.863281 L 53.800781 51.035156 L 59.628906 45.203125 L 56.484375 42.070312 L 50.660156 47.898438 L 41.921875 39.160156 C 45.65625 34.867188 47.710938 29.363281 47.707031 23.671875 C 47.707031 10.601562 37.109375 0 24.035156 0 C 10.960938 0 0.363281 10.597656 0.363281 23.671875 C 0.363281 36.746094 10.960938 47.34375 24.035156 47.34375 C 29.457031 47.351562 34.714844 45.488281 38.925781 42.070312 L 38.738281 42.257812 L 47.527344 51.046875 L 41.699219 56.875 L 44.839844 60 L 50.664062 54.171875 L 56.492188 60 Z M 24.039062 37.722656 C 16.195312 37.722656 9.984375 31.511719 9.984375 23.667969 C 9.984375 15.824219 16.195312 9.613281 24.039062 9.613281 C 31.882812 9.613281 38.085938 15.820312 38.085938 23.671875 C 38.085938 31.523438 31.882812 37.722656 24.039062 37.722656 Z M 24.039062 37.722656 "/>
</g>
</svg>
