<?xml version="1.0" encoding="UTF-8"?>
<svg xmlns="http://www.w3.org/2000/svg" xmlns:xlink="http://www.w3.org/1999/xlink" width="60pt" height="60pt" viewBox="0 0 60 60" version="1.1">
<defs>
<clipPath id="clip1">
  <path d="M 2.5 2.5 L 57.503906 2.5 L 57.503906 57.503906 L 2.5 57.503906 Z M 2.5 2.5 "/>
</clipPath>
</defs>
<g id="surface1">
<g clip-path="url(#clip1)" clip-rule="nonzero">
<path style=" stroke:none;fill-rule:nonzero;fill:rgb(100%,100%,100%);fill-opacity:1;" d="M 35.5 13.5 C 30.375 13.492188 25.414062 15.28125 21.46875 18.554688 L 9.539062 6.625 L 15.554688 6.625 L 15.554688 2.5 L 2.5 2.5 L 2.5 15.5625 L 6.625 15.5625 L 6.625 9.546875 L 18.554688 21.46875 C 15.28125 25.414062 13.492188 30.375 13.5 35.5 C 13.5 47.652344 23.347656 57.5 35.5 57.5 C 47.652344 57.5 57.5 47.652344 57.5 35.5 C 57.5 23.347656 47.652344 13.5 35.5 13.5 Z M 35.5 48.5625 C 28.210938 48.5625 22.4375 42.789062 22.4375 35.5 C 22.4375 28.210938 28.210938 22.4375 35.5 22.4375 C 42.789062 22.4375 48.5625 28.210938 48.5625 35.5 C 48.5625 42.789062 42.789062 48.5625 35.5 48.5625 Z M 35.5 48.5625 "/>
</g>
</g>
</svg>
